Coordinates
version=1
nRows=30
nColumns=19
inDegrees=yes

Units are S.I. units (second, meters, Newtons, ...)
If the header above contains a line with 'inDegrees', this indicates whether rotational values are in degrees (yes) or radians (no).

endheader
time	pelvis_tilt	pelvis_list	pelvis_rotation	pelvis_tx	pelvis_ty	pelvis_tz	hip_flexion_r	hip_adduction_r	hip_rotation_r	knee_angle_r	knee_angle_r_beta	ankle_angle_r	hip_flexion_l	hip_adduction_l	hip_rotation_l	knee_angle_l	knee_angle_l_beta	ankle_angle_l
     17.25333333	     -5.14200725	      6.01977309	      0.70112249	      2.32575729	      1.07851484	      1.04414759	     -8.00983241	     -7.84535218	     -8.25675487	     38.83921153	      0.67787212	    -17.37637912	     22.75827366	      7.28060010	    -11.36166069	     12.28212984	      0.21436360	     -5.48295280
     17.26000000	     -4.77234203	      6.59137003	      0.68911582	      2.32563124	      1.07545186	      1.04390336	     -7.59081396	     -8.69896138	     -7.88249956	     41.36244690	      0.72191089	    -16.21953966	     22.36649911	      8.00124900	    -11.40913221	     13.00118488	      0.22691348	     -5.41947588
     17.26666667	     -4.44023078	      7.08994454	      0.79092450	      2.32534148	      1.07188684	      1.04357422	     -7.07406390	     -9.44446344	     -7.54842135	     43.94859046	      0.76704761	    -15.08693890	     22.14673179	      8.63586546	    -11.36796213	     14.24893817	      0.24869089	     -5.04466320
     17.27333333	     -4.12627299	      7.53951159	      0.92196779	      2.32494240	      1.06789199	      1.04326922	     -6.46824667	    -10.11135684	     -7.16399583	     46.58331625	      0.81303225	    -14.03516280	     22.00574388	      9.20132328	    -11.25167934	     15.85461741	      0.27671528	     -4.35904191
     17.28000000	     -3.51920944	      8.00694576	      1.08187941	      2.32452487	      1.06387588	      1.04298986	     -6.17260032	    -10.77994021	     -6.86783041	     49.16585653	      0.85810608	    -13.09814664	     21.51701286	      9.80460473	    -10.99960691	     17.61182867	      0.30738440	     -3.35774861
     17.28666667	     -3.56429816	      8.30555677	      1.15600172	      2.32377065	      1.05872690	      1.04277341	     -4.93698327	    -11.27680620	     -6.24042943	     51.98633059	      0.90733263	    -12.21486182	     21.85118982	     10.14798928	    -10.93304402	     19.74432506	      0.34460348	     -2.00776372
     17.29333333	     -2.86731355	      8.73427935	      1.28701034	      2.32321762	      1.05420442	      1.04259199	     -4.61557899	    -11.89042938	     -5.88750105	     54.57435405	      0.95250217	    -11.42529552	     21.18996006	     10.72786507	    -10.53447083	     21.66297214	      0.37809019	     -0.24321659
     17.30000000	     -2.56293040	      9.04589084	      1.37670888	      2.32224679	      1.04896725	      1.04245881	     -3.68475686	    -12.39733880	     -5.38379142	     57.31260774	      1.00029371	    -10.69790003	     21.08554739	     11.08884101	    -10.46198347	     23.91818639	      0.41745110	      1.62148332
     17.30666667	     -3.04569236	      9.12970919	      1.36333705	      2.32097817	      1.04273737	      1.04253153	     -1.65836208	    -12.60387673	     -4.43945867	     60.20984134	      1.05085997	    -10.00470731	     21.84690647	     11.16481405	    -10.42938081	     26.22710991	      0.45774942	      3.83900238
     17.31333333	     -2.95260923	      9.35737925	      1.41775575	      2.31961875	      1.03716639	      1.04258803	     -0.30877518	    -12.96803140	     -3.76755630	     62.93082655	      1.09835012	     -9.29076299	     21.86076984	     11.44048606	    -10.31955738	     28.34822945	      0.49476994	      6.15079529
     17.32000000	     -2.87397350	      9.57855897	      1.42047981	      2.31810615	      1.03165740	      1.04278162	      1.13490242	    -13.31138998	     -3.03901515	     65.59763357	      1.14489469	     -8.57814678	     21.84173210	     11.68189991	    -10.27725058	     30.37140803	      0.53008107	      8.52453022
     17.32666667	     -2.80774562	      9.80416818	      1.38203548	      2.31642412	      1.02632875	      1.04311491	      2.66873386	    -13.63178879	     -2.25064846	     68.18915031	      1.19012519	     -7.85429758	     21.78195457	     11.90581518	    -10.27427920	     32.27070860	      0.56323012	     10.85908291
     17.33333333	     -2.40444057	     10.06944009	      1.41620820	      2.31468077	      1.02166187	      1.04339030	      3.80740877	    -14.01418797	     -1.66423845	     70.61116784	      1.23239737	     -7.03367267	     21.25298705	     12.20763370	    -10.16398689	     33.98480933	      0.59314682	     13.08080468
     17.34000000	     -2.65412437	     10.23123730	      1.32200711	      2.31263496	      1.01655223	      1.04389835	      5.87737339	    -14.20436461	     -0.70725188	     73.08147213	      1.27551231	     -6.25364062	     21.45731157	     12.30606764	    -10.25409314	     35.67762946	      0.62269210	     15.11412000
     17.34666667	     -2.45528899	     10.45039406	      1.23921411	      2.31064011	      1.01241267	      1.04437673	      7.41390007	    -14.47812462	      0.06438402	     75.30862370	      1.31438344	     -5.43504820	     21.03170698	     12.49968757	    -10.22328976	     37.09318896	      0.64739828	     16.94862316
     17.35333333	     -2.44477315	     10.59601198	      1.16445332	      2.30853846	      1.00850531	      1.04484381	      9.21670290	    -14.64335421	      0.86782226	     77.41446641	      1.35113733	     -4.67324487	     20.75124053	     12.61231303	    -10.15475487	     38.38773831	      0.66999243	     18.58277626
     17.36000000	     -1.86112961	     10.68370577	      1.23759122	      2.30652541	      1.00591597	      1.04508539	     10.25800817	    -14.78346497	      1.32019004	     79.18300573	      1.38200416	     -4.03266784	     19.67199147	     12.78234039	     -9.69485359	     39.39576209	      0.68758576	     19.90935562
     17.36666667	     -2.15715387	     10.83778614	      0.89776672	      2.30451305	      1.00258041	      1.04574782	     12.57059595	    -14.88642284	      2.42458902	     81.02564574	      1.41416430	     -3.19079710	     19.53008625	     12.79136416	     -9.95536746	     40.25893783	      0.70265102	     21.16995513
     17.37333333	     -1.93782245	     10.85490837	      0.79420034	      2.30260670	      1.00055767	      1.04603340	     14.13224729	    -14.90392382	      3.06281742	     82.49382692	      1.43978889	     -2.53452065	     18.64946174	     12.81365301	     -9.71910721	     40.87089842	      0.71333175	     22.17738669
     17.38000000	     -1.93940966	     10.83507240	      0.62182449	      2.30079798	      0.99881197	      1.04636390	     15.96353833	    -14.83135518	      3.78258769	     83.78144599	      1.46226208	     -1.95716174	     17.89208812	     12.77076252	     -9.58803091	     41.25399741	      0.72001808	     23.02385438
     17.38666667	     -1.66107748	     10.65405036	      0.68505960	      2.29912553	      0.99809986	      1.04631609	     17.30553623	    -14.66978123	      4.07798639	     84.73377667	      1.47888339	     -1.47767680	     16.66453900	     12.69141942	     -9.02617482	     41.41630733	      0.72285093	     23.63069787
     17.39333333	     -1.56091874	     10.44503063	      0.68222211	      2.29772964	      0.99773395	      1.04628572	     18.81222407	    -14.45915630	      4.39974969	     85.46599197	      1.49166296	     -0.90950971	     15.46917292	     12.55676095	     -8.59390643	     41.28452339	      0.72055086	     24.28789238
     17.40000000	     -1.60781874	     10.19651069	      0.62716518	      2.29658927	      0.99775249	      1.04628927	     20.44253402	    -14.21448513	      4.67587624	     85.96083029	      1.50029952	     -0.41823105	     14.31348566	     12.35781534	     -8.26894816	     40.93011752	      0.71436531	     24.70356743
     17.40666667	     -1.74340028	      9.87598843	      0.63851991	      2.29554059	      0.99822819	      1.04615031	     22.08242221	    -13.90884253	      4.81483829	     86.22162860	      1.50485131	      0.03512061	     13.14569660	     12.11069287	     -7.88897698	     40.38364141	      0.70482751	     24.93407157
     17.41333333	     -1.98813634	      9.52866633	      0.70908987	      2.29475665	      0.99911755	      1.04601682	     23.72632597	    -13.56715787	      4.84582411	     86.22804078	      1.50496322	      0.49656017	     11.98247841	     11.83258298	     -7.51113605	     39.64838282	      0.69199482	     25.04573001
     17.42000000	     -2.32823636	      9.13967596	      0.79529613	      2.29413567	      1.00040864	      1.04588619	     25.38027963	    -13.17720764	      4.78712388	     85.99918989	      1.50096902	      0.98200707	     10.83049319	     11.53897026	     -7.06159959	     38.72285443	      0.67584131	     24.97646967
     17.42666667	     -2.73425437	      8.71986459	      0.95821120	      2.29379782	      1.00212410	      1.04572218	     26.96870082	    -12.78663285	      4.57365848	     85.51969958	      1.49260033	      1.49068849	      9.65065863	     11.22370789	     -6.55454006	     37.61782644	      0.65655493	     24.70716188
     17.43333333	     -3.23810907	      8.24855073	      1.17405479	      2.29383042	      1.00418115	      1.04549620	     28.51595385	    -12.43729791	      4.13588861	     84.77641185	      1.47962751	      2.05223086	      8.51245583	     10.81309931	     -6.15561031	     36.40902563	      0.63545737	     24.24501871
     17.44000000	     -3.75914944	      7.73012971	      1.44832188	      2.29401066	      1.00672083	      1.04536163	     29.94055890	    -11.99343812	      3.63641165	     83.78365522	      1.46230064	      2.63363996	      7.32985218	     10.39552914	     -5.52734221	     35.03964019	      0.61155709	     23.47071345
     17.44666667	     -3.31541699	      6.99204842	      2.10645580	      2.29469749	      1.01095588	      1.04458676	     29.92319392	    -11.73131272	      2.27828427	     82.38339892	      1.43786156	      3.31054659	      4.94095613	      9.76404478	     -4.36006564	     33.41978062	      0.58328521	     22.46672615
